<svg width="22" height="22" viewBox="0 0 22 22" fill="none" xmlns="http://www.w3.org/2000/svg">
<g filter="url(#filter0_d_134_123)">
<path d="M17.2498 1H16.7836C15.8511 1 15.0422 1.64455 14.8341 2.55362L14.2935 4.91487" stroke="#4147D5" stroke-width="1.5" stroke-linecap="round" stroke-linejoin="round"/>
<path d="M5.04749 5.74889C5.18579 7.21113 5.60051 8.42798 5.94859 9.17988C6.12747 9.56627 6.44172 9.86628 6.85345 9.9748C7.35732 10.1076 8.22418 10.25 9.625 10.25C11.0258 10.25 11.8927 10.1076 12.3966 9.9748C12.8083 9.86628 13.1225 9.56627 13.3014 9.17988C13.7261 8.26248 14.25 6.65293 14.25 4.75H6C5.44772 4.75 4.99549 5.19906 5.04749 5.74889Z" fill="#D7E0FF" stroke="#4147D5" stroke-width="1.5" stroke-linecap="round" stroke-linejoin="round"/>
<path d="M6.25 13.25C6.52614 13.25 6.75 13.0261 6.75 12.75C6.75 12.4739 6.52614 12.25 6.25 12.25C5.97386 12.25 5.75 12.4739 5.75 12.75C5.75 13.0261 5.97386 13.25 6.25 13.25Z" fill="#4147D5" stroke="#4147D5" stroke-width="1.5" stroke-linecap="round" stroke-linejoin="round"/>
<path d="M12.75 13.25C13.0261 13.25 13.25 13.0261 13.25 12.75C13.25 12.4739 13.0261 12.25 12.75 12.25C12.4739 12.25 12.25 12.4739 12.25 12.75C12.25 13.0261 12.4739 13.25 12.75 13.25Z" fill="#4147D5" stroke="#4147D5" stroke-width="1.5" stroke-linecap="round" stroke-linejoin="round"/>
</g>
<defs>
<filter id="filter0_d_134_123" x="0.292969" y="0.25" width="21.707" height="21.75" filterUnits="userSpaceOnUse" color-interpolation-filters="sRGB">
<feFlood flood-opacity="0" result="BackgroundImageFix"/>
<feColorMatrix in="SourceAlpha" type="matrix" values="0 0 0 0 0 0 0 0 0 0 0 0 0 0 0 0 0 0 127 0" result="hardAlpha"/>
<feOffset dy="4"/>
<feGaussianBlur stdDeviation="2"/>
<feComposite in2="hardAlpha" operator="out"/>
<feColorMatrix type="matrix" values="0 0 0 0 0 0 0 0 0 0 0 0 0 0 0 0 0 0 0.25 0"/>
<feBlend mode="normal" in2="BackgroundImageFix" result="effect1_dropShadow_134_123"/>
<feBlend mode="normal" in="SourceGraphic" in2="effect1_dropShadow_134_123" result="shape"/>
</filter>
</defs>
</svg>
