<svg width="29" height="23" viewBox="0 0 29 23" fill="none" xmlns="http://www.w3.org/2000/svg">
<g filter="url(#filter0_d_117_15)">
<path d="M16.3391 4.80743C16.4272 5.38369 17.0892 5.84717 17.9118 5.91138C18.5229 5.95906 19.1503 6.00002 19.7899 6.00002C20.4296 6.00002 21.057 5.95906 21.668 5.91138C22.4907 5.84717 23.1526 5.38369 23.2407 4.80743C23.3057 4.38202 23.3606 3.94527 23.3606 3.50001C23.3606 3.05475 23.3057 2.618 23.2407 2.19259C23.1526 1.61633 22.4907 1.15285 21.668 1.08864C21.057 1.04096 20.4296 1 19.7899 1C19.1503 1 18.5229 1.04096 17.9118 1.08864C17.0892 1.15285 16.4272 1.61633 16.3391 2.19259C16.2741 2.618 16.2192 3.05475 16.2192 3.50001C16.2192 3.94527 16.2741 4.38202 16.3391 4.80743Z" fill="#D7E0FF" stroke="#4147D5" stroke-width="1.5"/>
<path d="M5.1199 4.80743C5.20796 5.38369 5.86993 5.84717 6.69259 5.91138C7.30364 5.95906 7.93102 6.00002 8.57068 6.00002C9.21034 6.00002 9.83773 5.95906 10.4488 5.91138C11.2714 5.84717 11.9334 5.38369 12.0215 4.80743C12.0865 4.38202 12.1414 3.94527 12.1414 3.50001C12.1414 3.05475 12.0865 2.618 12.0215 2.19259C11.9334 1.61633 11.2714 1.15285 10.4488 1.08864C9.83773 1.04096 9.21034 1 8.57068 1C7.93102 1 7.30363 1.04096 6.69259 1.08864C5.86993 1.15285 5.20796 1.61633 5.1199 2.19259C5.05489 2.618 5 3.05475 5 3.50001C5 3.94527 5.05489 4.38202 5.1199 4.80743Z" fill="#D7E0FF" stroke="#4147D5" stroke-width="1.5"/>
<path d="M5.1199 12.8074C5.20796 13.3837 5.86993 13.8472 6.69259 13.9114C7.30364 13.9591 7.93102 14 8.57068 14C9.21034 14 9.83773 13.9591 10.4488 13.9114C11.2714 13.8472 11.9334 13.3837 12.0215 12.8074C12.0865 12.382 12.1414 11.9453 12.1414 11.5C12.1414 11.0547 12.0865 10.618 12.0215 10.1926C11.9334 9.61633 11.2714 9.15285 10.4488 9.08864C9.83773 9.04096 9.21034 9 8.57068 9C7.93102 9 7.30363 9.04096 6.69259 9.08864C5.86993 9.15285 5.20796 9.61633 5.1199 10.1926C5.05489 10.618 5 11.0547 5 11.5C5 11.9453 5.05489 12.382 5.1199 12.8074Z" fill="#D7E0FF" stroke="#4147D5" stroke-width="1.5"/>
<path d="M16.3391 12.8074C16.4272 13.3837 17.0892 13.8472 17.9118 13.9114C18.5229 13.9591 19.1503 14 19.7899 14C20.4296 14 21.057 13.9591 21.668 13.9114C22.4907 13.8472 23.1526 13.3837 23.2407 12.8074C23.3057 12.382 23.3606 11.9453 23.3606 11.5C23.3606 11.0547 23.3057 10.618 23.2407 10.1926C23.1526 9.61633 22.4907 9.15285 21.668 9.08864C21.057 9.04096 20.4296 9 19.7899 9C19.1503 9 18.5229 9.04096 17.9118 9.08864C17.0892 9.15285 16.4272 9.61633 16.3391 10.1926C16.2741 10.618 16.2192 11.0547 16.2192 11.5C16.2192 11.9453 16.2741 12.382 16.3391 12.8074Z" fill="#D7E0FF" stroke="#4147D5" stroke-width="1.5"/>
</g>
<defs>
<filter id="filter0_d_117_15" x="0.25" y="0.25" width="27.8608" height="22.5" filterUnits="userSpaceOnUse" color-interpolation-filters="sRGB">
<feFlood flood-opacity="0" result="BackgroundImageFix"/>
<feColorMatrix in="SourceAlpha" type="matrix" values="0 0 0 0 0 0 0 0 0 0 0 0 0 0 0 0 0 0 127 0" result="hardAlpha"/>
<feOffset dy="4"/>
<feGaussianBlur stdDeviation="2"/>
<feComposite in2="hardAlpha" operator="out"/>
<feColorMatrix type="matrix" values="0 0 0 0 0 0 0 0 0 0 0 0 0 0 0 0 0 0 0.25 0"/>
<feBlend mode="normal" in2="BackgroundImageFix" result="effect1_dropShadow_117_15"/>
<feBlend mode="normal" in="SourceGraphic" in2="effect1_dropShadow_117_15" result="shape"/>
</filter>
</defs>
</svg>
