<svg width="14" height="15" viewBox="0 0 14 15" fill="none" xmlns="http://www.w3.org/2000/svg">
<path d="M8.61038 1.09966C7.6905 1.03419 6.74301 1 5.77527 1C4.80752 1 3.86003 1.03419 2.94014 1.09967C1.9279 1.17172 1.15353 1.92654 1.1078 2.84563C1.03719 4.26513 1 5.73869 1 7.25C1 8.7613 1.03719 10.2349 1.1078 11.6544C1.15353 12.5735 1.9279 13.3283 2.94014 13.4003C3.86003 13.4658 4.80752 13.5 5.77527 13.5C6.74301 13.5 7.6905 13.4658 8.61039 13.4003C9.62262 13.3283 10.397 12.5735 10.4427 11.6544C10.4679 11.1479 10.4889 10.6346 10.5054 10.1151V4.38496C10.4889 3.86546 10.4679 3.3521 10.4427 2.84563C10.397 1.92654 9.62262 1.17171 8.61038 1.09966Z" fill="#D7E0FF"/>
<path d="M7.90995 7.24997C7.90995 7.74568 7.84051 8.4435 7.76888 9.03149C7.69587 9.63076 7.09629 10.0146 6.54364 9.77164C5.53195 9.32689 4.5995 8.66711 3.94688 7.70759C3.75889 7.4312 3.75888 7.06874 3.94685 6.79234C4.59942 5.83279 5.5319 5.17303 6.54359 4.72828C7.09622 4.48534 7.69578 4.86916 7.76882 5.4684C7.84048 6.05639 7.90995 6.75424 7.90995 7.24997Z" fill="white"/>
<path d="M7.90995 7.24997C7.90995 7.74568 7.84051 8.4435 7.76888 9.03149C7.69587 9.63076 7.09629 10.0146 6.54364 9.77164C5.53195 9.32689 4.5995 8.66711 3.94688 7.70759C3.75889 7.4312 3.75888 7.06874 3.94685 6.79234C4.59942 5.83279 5.5319 5.17303 6.54359 4.72828C7.09622 4.48534 7.69578 4.86916 7.76882 5.4684C7.84048 6.05639 7.90995 6.75424 7.90995 7.24997Z" stroke="#4147D5" stroke-width="1.5" stroke-linecap="round" stroke-linejoin="round"/>
<path d="M10.5054 4.38496C10.4889 3.86546 10.4679 3.3521 10.4427 2.84563C10.397 1.92654 9.62262 1.17171 8.61038 1.09966C7.6905 1.03419 6.74301 1 5.77527 1C4.80752 1 3.86003 1.03419 2.94014 1.09967C1.9279 1.17172 1.15353 1.92654 1.1078 2.84563C1.03719 4.26513 1 5.73869 1 7.25C1 8.7613 1.03719 10.2349 1.1078 11.6544C1.15353 12.5735 1.9279 13.3283 2.94014 13.4003C3.86003 13.4658 4.80752 13.5 5.77527 13.5C6.74301 13.5 7.6905 13.4658 8.61039 13.4003C9.62262 13.3283 10.397 12.5735 10.4427 11.6544C10.4679 11.1479 10.4889 10.6346 10.5054 10.1151" stroke="#4147D5" stroke-width="1.5" stroke-linecap="round"/>
<path d="M13.0466 7.25L7.90967 7.25" stroke="#4147D5" stroke-width="1.5" stroke-linecap="round" stroke-linejoin="round"/>
</svg>
