<svg width="22" height="19" viewBox="0 0 22 19" fill="none" xmlns="http://www.w3.org/2000/svg">
<path d="M1.56436 15.3304C1.69342 16.285 2.46789 17.0306 3.4271 17.1188C5.89457 17.3455 8.47259 17.6369 11.125 17.6369C13.7774 17.6369 16.3554 17.3455 18.8229 17.1188C19.7821 17.0306 20.5566 16.285 20.6856 15.3304C20.9468 13.3987 21.25 11.3862 21.25 9.31846C21.25 7.25075 20.9468 5.23825 20.6856 3.30648C20.5566 2.35192 19.7821 1.60627 18.8229 1.51814C16.3554 1.29143 13.7774 1 11.125 1C8.47259 1 5.89457 1.29143 3.4271 1.51814C2.46789 1.60627 1.69342 2.35192 1.56436 3.30648C1.30318 5.23825 1 7.25075 1 9.31846C1 11.3862 1.30318 13.3987 1.56436 15.3304Z" fill="#D7E0FF" stroke="#4147D5" stroke-width="1.5" stroke-linejoin="round"/>
<path d="M1.50146 3.71722L9.95824 9.79119C10.6555 10.292 11.5945 10.292 12.2917 9.79119L20.7485 3.71722" stroke="#4147D5" stroke-width="1.5" stroke-linejoin="round"/>
</svg>
