<svg width="28" height="23" viewBox="0 0 28 23" fill="none" xmlns="http://www.w3.org/2000/svg">
<g filter="url(#filter0_d_117_44)">
<path d="M4.75 8.25L10.2426 1.8786C10.6415 1.41585 11.3585 1.41585 11.7574 1.8786L17.25 8.25" stroke="#4147D5" stroke-width="1.5" stroke-linecap="round" stroke-linejoin="round"/>
<path d="M6.67315 6.04105L10.2413 1.88405C10.6403 1.41913 11.3598 1.41913 11.7589 1.88404L15.327 6.04105L15.5874 8.30499C15.7337 9.57651 15.7091 10.8619 15.5143 12.1269V12.1269C15.4065 12.8265 14.8045 13.3429 14.0967 13.3429H7.90347C7.19563 13.3429 6.59363 12.8265 6.4859 12.1269V12.1269C6.2911 10.8619 6.2665 9.57651 6.41275 8.30499L6.67315 6.04105Z" fill="#D7E0FF"/>
<path d="M6.67315 6.04105L10.2413 1.88405C10.6403 1.41913 11.3598 1.41913 11.7589 1.88404L15.327 6.04105L15.5874 8.30499C15.7337 9.57651 15.7091 10.8619 15.5143 12.1269V12.1269C15.4065 12.8265 14.8045 13.3429 14.0967 13.3429H7.90347C7.19563 13.3429 6.59363 12.8265 6.4859 12.1269V12.1269C6.2911 10.8619 6.2665 9.57651 6.41275 8.30499L6.67315 6.04105Z" stroke="#4147D5" stroke-width="1.5" stroke-linejoin="round"/>
</g>
<defs>
<filter id="filter0_d_117_44" x="0" y="0.781494" width="32" height="22.2185" filterUnits="userSpaceOnUse" color-interpolation-filters="sRGB">
<feFlood flood-opacity="0" result="BackgroundImageFix"/>
<feColorMatrix in="SourceAlpha" type="matrix" values="0 0 0 0 0 0 0 0 0 0 0 0 0 0 0 0 0 0 127 0" result="hardAlpha"/>
<feOffset dy="4"/>
<feGaussianBlur stdDeviation="2"/>
<feComposite in2="hardAlpha" operator="out"/>
<feColorMatrix type="matrix" values="0 0 0 0 0 0 0 0 0 0 0 0 0 0 0 0 0 0 0.25 0"/>
<feBlend mode="normal" in2="BackgroundImageFix" result="effect1_dropShadow_117_44"/>
<feBlend mode="normal" in="SourceGraphic" in2="effect1_dropShadow_117_44" result="shape"/>
</filter>
</defs>
</svg>
