<svg width="23" height="23" viewBox="0 0 23 23" fill="none" xmlns="http://www.w3.org/2000/svg">
<g filter="url(#filter0_d_117_20)">
<path d="M5.23685 12.0626C5.34408 13.0225 6.11144 13.7895 7.07096 13.9005C8.15518 14.0259 9.27552 14.1497 10.4218 14.1497C11.5681 14.1497 12.6884 14.0259 13.7727 13.9005C14.7322 13.7895 15.4995 13.0225 15.6068 12.0626C15.7273 10.9835 15.8436 9.86857 15.8436 8.72784C15.8436 7.58712 15.7273 6.47217 15.6068 5.39309C15.4995 4.43315 14.7322 3.66616 13.7727 3.55517C12.6884 3.42975 11.5681 3.30603 10.4218 3.30603C9.27552 3.30603 8.15518 3.42975 7.07096 3.55517C6.11144 3.66616 5.34408 4.43315 5.23685 5.39309C5.11631 6.47217 5 7.58712 5 8.72784C5 9.86857 5.11631 10.9835 5.23685 12.0626Z" fill="white"/>
<path d="M9.62432 3.32471C8.75501 3.36386 7.90237 3.45904 7.07096 3.55521C6.11145 3.6662 5.34408 4.43319 5.23685 5.39313C5.11631 6.47221 5 7.58716 5 8.72789C5 9.86861 5.11631 10.9836 5.23685 12.0626C5.34408 13.0226 6.11144 13.7896 7.07096 13.9006C8.15518 14.026 9.27552 14.1497 10.4218 14.1497C11.5681 14.1497 12.6884 14.026 13.7727 13.9006C14.7322 13.7896 15.4995 13.0226 15.6068 12.0627C15.6935 11.2864 15.778 10.4917 15.8186 9.68207" stroke="#4147D5" stroke-width="1.5" stroke-linecap="round"/>
<path d="M14.3426 2.21723L10.6577 6.39839L10.1529 8.77271C10.0717 9.15475 10.4699 9.51624 10.8428 9.399L13.2056 8.65619L17.0118 4.65128C17.6439 3.98611 17.5336 2.87357 16.7684 2.19676C16.0212 1.5358 14.9351 1.54497 14.3426 2.21723Z" fill="#D7E0FF"/>
<path d="M14.3426 2.21723L10.6577 6.39839L10.1529 8.77271C10.0717 9.15475 10.4699 9.51624 10.8428 9.399L13.2056 8.65619L17.0118 4.65128C17.6439 3.98611 17.5336 2.87357 16.7684 2.19676C16.0212 1.5358 14.9351 1.54497 14.3426 2.21723Z" stroke="#4147D5" stroke-width="1.5" stroke-linecap="round" stroke-linejoin="round"/>
</g>
<defs>
<filter id="filter0_d_117_20" x="0.25" y="0.961304" width="21.9268" height="21.9384" filterUnits="userSpaceOnUse" color-interpolation-filters="sRGB">
<feFlood flood-opacity="0" result="BackgroundImageFix"/>
<feColorMatrix in="SourceAlpha" type="matrix" values="0 0 0 0 0 0 0 0 0 0 0 0 0 0 0 0 0 0 127 0" result="hardAlpha"/>
<feOffset dy="4"/>
<feGaussianBlur stdDeviation="2"/>
<feComposite in2="hardAlpha" operator="out"/>
<feColorMatrix type="matrix" values="0 0 0 0 0 0 0 0 0 0 0 0 0 0 0 0 0 0 0.25 0"/>
<feBlend mode="normal" in2="BackgroundImageFix" result="effect1_dropShadow_117_20"/>
<feBlend mode="normal" in="SourceGraphic" in2="effect1_dropShadow_117_20" result="shape"/>
</filter>
</defs>
</svg>
